<?xml version="1.0" encoding="utf-8"?>
<!-- Generator: Adobe Illustrator 24.3.0, SVG Export Plug-In . SVG Version: 6.00 Build 0)  -->
<svg version="1.1" id="Layer_1" xmlns="http://www.w3.org/2000/svg" xmlns:xlink="http://www.w3.org/1999/xlink" x="0px" y="0px"
	 viewBox="0 0 24 24" style="enable-background:new 0 0 24 24;" xml:space="preserve">
<style type="text/css">
	.st0{fill:#FFFFFF;}
</style>
<path class="st0" d="M7.1,1.4C7.1,0.6,7.7,0,8.5,0c0.9,0,1.6,0.9,1.4,1.8c-0.1,0.3,0,0.7,0.1,1c0.4,0.7,1.1,1.1,2,1.1
	c0.9,0,1.6-0.4,2-1.1c0.2-0.3,0.2-0.7,0.1-1C13.9,0.9,14.6,0,15.5,0c0.8,0,1.4,0.6,1.4,1.4c0,0.7-0.5,1.2-1.1,1.4
	c-0.3,0.1-0.6,0.3-0.8,0.5c-0.6,1,0.2,1.9,0.9,2.8C14.8,6.7,13.4,7,12,7c-1.5,0-2.8-0.3-4-0.8C8.8,5.2,9.6,4.4,9,3.3
	C8.8,3.1,8.5,2.9,8.2,2.8C7.6,2.6,7.1,2.1,7.1,1.4z M20.6,15.5h2.4c0.6,0,1.1-0.5,1.1-1s-0.5-1-1.1-1h-2.4c-0.6,0-1.1-0.4-1.2-1.1
	c-0.1-0.7,0.3-1.1,0.8-1.3l2.2-0.9c0.5-0.2,0.8-0.8,0.6-1.3c-0.2-0.5-0.8-0.8-1.4-0.6l-2.3,0.9c-0.3,0.1-0.7,0-0.9-0.4
	c-0.2-0.4-0.4-0.8-0.6-1.2C16,8.5,14.1,9,12,9C9.9,9,8,8.5,6.3,7.5C6.1,7.9,5.9,8.2,5.7,8.7C5.5,9.2,5,9.2,4.8,9.1L2.5,8.2
	C1.9,8,1.3,8.2,1.1,8.8c-0.2,0.5,0.1,1.1,0.6,1.3L3.9,11c0.5,0.2,0.9,0.7,0.8,1.3C4.6,13,4,13.4,3.5,13.4H1.1c-0.6,0-1.1,0.5-1.1,1
	s0.5,1,1.1,1h2.4c0.6,0,1.2,0.4,1.3,1.1C4.8,17.2,4.5,17.7,4,18L1.5,19C1,19.3,0.8,19.9,1,20.4s0.9,0.8,1.4,0.5L5,19.8
	c0.3-0.1,0.7-0.1,0.9,0.3c1,1.8,3.1,3.6,6.1,3.9c2.9-0.3,5-2.1,6.1-3.8c0.3-0.4,0.6-0.5,1-0.4l2.6,1.1c0.5,0.2,1.2,0,1.4-0.5
	c0.2-0.5,0-1.1-0.5-1.4L20,18c-0.5-0.2-0.9-0.7-0.8-1.4C19.4,15.8,20,15.5,20.6,15.5z"/>
</svg>
