<?xml version="1.0" encoding="utf-8"?>
<!-- Generator: Adobe Illustrator 24.3.0, SVG Export Plug-In . SVG Version: 6.00 Build 0)  -->
<svg version="1.1" id="Layer_1" xmlns="http://www.w3.org/2000/svg" xmlns:xlink="http://www.w3.org/1999/xlink" x="0px" y="0px"
	 viewBox="0 0 24 24" style="enable-background:new 0 0 24 24;" xml:space="preserve">
<style type="text/css">
	.st0{fill:#FFFFFF;}
</style>
<path class="st0" d="M10.8,16.4c2.5-0.6,3.9-1.1,2.8-3.2c-3.4-6.4-0.9-9.8,2.7-9.8c3.6,0,6,3.5,2.7,9.8c-1.1,2.1,0.4,2.6,2.8,3.2
	c2.1,0.5,2.3,1.5,2.3,3.3v0.9H8.6C8.6,18.2,8.4,16.9,10.8,16.4z M0,20.6h6.7c0-7,2.9-4.6,2.9-9.5c0-2.2-1.4-3.3-3.2-3.3
	c-2.7,0-4.5,2.6-2,7.3c0.8,1.6-0.9,1.9-2.7,2.4C0.1,17.8,0,18.6,0,19.9C0,19.9,0,20.6,0,20.6z"/>
</svg>
